<?xml version="1.0" encoding="utf-8"?>
<!-- Generator: Adobe Illustrator 27.9.5, SVG Export Plug-In . SVG Version: 9.03 Build 54986)  -->
<svg version="1.1" id="Capa_1" xmlns="http://www.w3.org/2000/svg" xmlns:xlink="http://www.w3.org/1999/xlink" x="0px" y="0px"
	 viewBox="0 0 398.7 112.1" style="enable-background:new 0 0 398.7 112.1;" xml:space="preserve">
<style type="text/css">
	.st0{fill-rule:evenodd;clip-rule:evenodd;fill:#223D71;}
	.st1{fill:#223D71;}
	.st2{opacity:0.8;fill-rule:evenodd;clip-rule:evenodd;fill:#223D71;enable-background:new    ;}
	.st3{opacity:0.8;fill:#223D71;enable-background:new    ;}
	.st4{fill:#221F20;}
</style>
<path class="st0" d="M115,2.9v23.8c0,12.2,5.6,17.6,15.3,17.6s16-5.6,16-17.5V2.9h-8.6v24.4c0,6.8-2.5,10-7.1,10s-6.9-3.3-6.9-10
	V2.9H115z"/>
<path class="st0" d="M151.9,43.7h8.6v-16c0-0.8,0.1-1.6,0.3-2.2c0.6-1.6,2-3.2,4.4-3.2c3.1,0,4.4,2.4,4.4,6v15.4h8.6V27.2
	c0-8.2-4.3-12-9.9-12c-4.7,0-7.4,2.7-8.6,4.5h-0.2l-0.4-3.9h-7.5c0.1,2.5,0.2,5.4,0.2,8.9L151.9,43.7z"/>
<path class="st0" d="M188,2.9c-2.8,0-4.6,1.9-4.6,4.3s1.8,4.3,4.5,4.3c2.9,0,4.7-1.9,4.7-4.3C192.5,4.8,190.8,2.9,188,2.9"/>
<rect x="183.6" y="15.9" class="st1" width="8.6" height="27.8"/>
<path class="st0" d="M194.6,15.9l10.1,27.8h8.6l10.4-27.8h-9.1L211,28.8c-0.6,2.4-1.1,4.5-1.5,6.8h-0.2c-0.5-2.2-0.9-4.4-1.6-6.8
	L204,15.9H194.6z"/>
<path class="st0" d="M249.8,32.5c0.1-0.6,0.3-1.9,0.3-3.4c0-6.9-3.4-13.9-12.4-13.9c-9.7,0-14,7.8-14,14.8c0,8.7,5.4,14.2,14.8,14.2
	c3.8,0,7.2-0.6,10.1-1.8l-1.1-5.8c-2.3,0.8-4.7,1.2-7.7,1.2c-4,0-7.6-1.7-7.8-5.3L249.8,32.5z M231.9,26.6c0.2-2.3,1.7-5.6,5.3-5.6
	c4,0,4.9,3.5,4.9,5.6H231.9z"/>
<path class="st0" d="M253.7,43.7h8.6V29.6c0-0.7,0.1-1.4,0.2-1.9c0.6-2.7,2.7-4.4,5.9-4.4c1,0,1.6,0.1,2.3,0.2v-8.1
	c-0.6-0.1-1-0.2-1.8-0.2c-2.7,0-6.1,1.7-7.5,5.8h-0.2l-0.3-5.1h-7.4c0.2,2.4,0.2,5.1,0.2,9.1V43.7z"/>
<path class="st0" d="M272.1,42.3c2.1,1.1,5.3,2,9,2c8,0,12-3.8,12-9c-0.1-4-2.2-6.8-7.5-8.6c-3.4-1.2-4.5-1.9-4.5-3.2
	s1.2-2.2,3.3-2.2c2.3,0,4.8,0.9,6,1.6l1.5-6c-1.7-0.9-4.5-1.6-7.8-1.6c-6.9,0-11.3,3.9-11.3,9.1c-0.1,3.3,2.2,6.4,8,8.4
	c3.2,1.1,4,1.8,4,3.2s-1.1,2.3-3.7,2.3s-5.9-1.1-7.5-2L272.1,42.3z"/>
<path class="st0" d="M301.2,2.9c-2.8,0-4.6,1.9-4.6,4.3s1.8,4.3,4.5,4.3c2.9,0,4.7-1.9,4.7-4.3C305.7,4.8,304,2.9,301.2,2.9"/>
<rect x="296.8" y="15.9" class="st1" width="8.6" height="27.8"/>
<path class="st0" d="M329.1,3.2v15.1H329c-1.2-1.9-3.9-3.1-7.3-3.1c-6.6,0-12.5,5.5-12.5,14.8c0,8.6,5.3,14.3,11.9,14.3
	c3.6,0,7-1.6,8.7-4.7h0.2l0.3,4h7.7c-0.1-1.9-0.2-5.2-0.2-8.3V3.2H329.1z M329.1,31.3c0,0.7-0.1,1.4-0.2,2c-0.5,2.4-2.6,4.2-5.1,4.2
	c-3.6,0-5.9-3-5.9-7.7c0-4.4,2-7.9,6-7.9c2.7,0,4.5,1.9,5.1,4.2c0.1,0.5,0.1,1.1,0.1,1.6V31.3L329.1,31.3L329.1,31.3z"/>
<path class="st0" d="M366.2,27.2c0-6.6-2.9-12.1-12.2-12.1c-5.1,0-8.9,1.4-10.8,2.5l1.6,5.6c1.8-1.1,4.8-2.1,7.7-2.1
	c4.3,0,5.1,2.1,5.1,3.6V25c-9.8,0-16.3,3.4-16.3,10.6c0,4.4,3.4,8.5,9,8.5c3.3,0,6.1-1.2,8-3.4h0.2l0.5,2.8h7.8
	c-0.3-1.5-0.5-4.1-0.5-6.7L366.2,27.2z M357.9,33.5c0,0.5-0.1,1-0.2,1.5c-0.6,1.8-2.4,3.2-4.5,3.2c-1.9,0-3.4-1.1-3.4-3.3
	c0-3.3,3.5-4.4,8.1-4.4V33.5L357.9,33.5L357.9,33.5z"/>
<path class="st0" d="M389.8,3.2v15.1h-0.1c-1.2-1.9-3.9-3.1-7.3-3.1c-6.6,0-12.5,5.5-12.5,14.8c0,8.6,5.3,14.3,11.9,14.3
	c3.6,0,7-1.6,8.7-4.7h0.2l0.3,4h7.7c-0.1-1.9-0.2-5.2-0.2-8.3V3.2H389.8z M389.8,31.3c0,0.7,0,1.4-0.2,2c-0.5,2.4-2.6,4.2-5.1,4.2
	c-3.6,0-5.9-3-5.9-7.7c0-4.4,2-7.9,6-7.9c2.7,0,4.5,1.9,5,4.2c0.1,0.5,0.1,1.1,0.1,1.6L389.8,31.3L389.8,31.3L389.8,31.3z"/>
<polygon class="st2" points="19.4,112.1 21.5,112.1 21.5,102.8 19.8,102.8 17.3,103.9 17.6,105.6 19.4,104.7 "/>
<path class="st2" d="M56.2,112.1v-2.2h1.1v-1.6h-1.1v-5.4h-2.7l-3.5,5.6v1.4h4.1v2.2 M52,108.2L52,108.2l1.2-2
	c0.3-0.6,0.6-1.1,0.9-1.7l0,0c0,0.6,0,1.2,0,1.7v2C54.1,108.2,52,108.2,52,108.2z"/>
<path class="st1" d="M42.1,42.8c0.5,0,0.9-0.4,0.9-0.9S42.6,41,42.1,41s-0.9,0.4-0.9,0.9S41.6,42.8,42.1,42.8 M43,42.8
	c0,0.5,0.4,0.9,0.9,0.9s0.9-0.4,0.9-0.9s-0.4-0.9-0.9-0.9S43,42.3,43,42.8 M40.4,40c-0.5,0-0.9,0.4-0.9,0.9s0.4,0.9,0.9,0.9
	s0.9-0.4,0.9-0.9S40.9,40,40.4,40 M45,43.5c0,0.3,0.3,0.6,0.6,0.6s0.6-0.3,0.6-0.6s-0.3-0.6-0.6-0.6S45,43.1,45,43.5 M48.6,18.8
	v-4.4c0-1.4-1.1-2.5-2.5-2.5s-2.5,1.1-2.5,2.5v4.4c0,0.3,0.2,0.5,0.5,0.5h4.1C48.4,19.3,48.6,19.1,48.6,18.8 M37,40.2
	c0,0.7,0.5,1.2,1.2,1.2s1.2-0.6,1.2-1.2S38.9,39,38.2,39S37,39.5,37,40.2 M34.3,41c-0.5,0-0.9,0.4-0.9,0.9s0.4,0.9,0.9,0.9
	s0.9-0.4,0.9-0.9S34.7,41,34.3,41 M36,41.8c0.5,0,0.9-0.4,0.9-0.9S36.5,40,36,40s-0.9,0.4-0.9,0.9S35.5,41.8,36,41.8 M33.3,31.6v8.7
	l4.9-2.3l5.1,2.5v-8.9c0-2.8-2.2-5-5-5S33.4,28.8,33.3,31.6 M33.3,14.4c0-1.4-1.1-2.5-2.5-2.5s-2.5,1.1-2.5,2.5v4.4
	c0,0.3,0.2,0.5,0.5,0.5h4.1c0.2,0,0.5-0.1,0.5-0.5L33.3,14.4L33.3,14.4z M71.6,7l4.2-4.2H1.7L4.3,7H71.6z M65.8,1.9L69.2,0h-62
	l2.2,1.9H65.8L65.8,1.9z M32.4,41.9c-0.5,0-0.9,0.4-0.9,0.9s0.4,0.9,0.9,0.9s0.9-0.4,0.9-0.9S32.9,41.9,32.4,41.9 M51.4,31.6v8.9
	c0,0.6,0.5,0.9,0.9,0.9h8.2c0.5,0,0.9-0.3,0.9-0.9v-8.9c0-2.8-2.2-5-5-5S51.4,28.8,51.4,31.6 M40.4,19.2c0.2,0,0.5-0.1,0.5-0.5v-4.4
	c0-1.4-1.1-2.5-2.5-2.5s-2.5,1.1-2.5,2.5v4.4c0,0.3,0.2,0.5,0.5,0.5H40.4L40.4,19.2z M30.3,43.5c0,0.3,0.3,0.6,0.6,0.6
	s0.6-0.3,0.6-0.6s-0.3-0.6-0.6-0.6S30.3,43.1,30.3,43.5 M51.3,49.2l-13.1-7.1l-13.3,7L51.3,49.2L51.3,49.2L51.3,49.2z M36.9,44.2
	h2.7c0.2,0,0.3,0.1,0.3,0.3v2.1c0,0.9-0.7,1.6-1.6,1.6s-1.6-0.7-1.6-1.6v-2.1C36.6,44.3,36.7,44.2,36.9,44.2 M0,93.3h76.5v-4.6H0
	V93.3z M24.9,54.4c0-0.7-0.6-1.3-1.3-1.3s-1.3,0.6-1.3,1.3s0.6,1.3,1.3,1.3S24.9,55.1,24.9,54.4 M14.9,31.6v8.9
	c0,0.6,0.4,0.9,0.9,0.9H24c0.5,0,0.9-0.3,0.9-0.9v-8.9c0-2.8-2.2-5-5-5S14.9,28.8,14.9,31.6 M23.2,11.9c-1.4,0-2.5,1.1-2.5,2.5v4.4
	c0,0.3,0.2,0.5,0.5,0.5h4.1c0.2,0,0.5-0.1,0.5-0.5v-4.4C25.7,13,24.6,11.9,23.2,11.9 M17.6,54.4c0-0.7-0.6-1.3-1.3-1.3
	S15,53.6,15,54.4s0.6,1.3,1.3,1.3S17.6,55.1,17.6,54.4 M15.7,11.9c-1.4,0-2.5,1.1-2.5,2.5v4.4c0,0.3,0.2,0.5,0.4,0.5h4.1
	c0.2,0,0.5-0.1,0.5-0.5v-4.4C18.2,13,17.1,11.9,15.7,11.9 M14.9,77.7c0,0.6,0.4,0.9,0.9,0.9H24c0.5,0,0.9-0.3,0.9-0.9V62.5
	c0-2.8-2.2-5-5-5s-5,2.2-5,5V77.7L14.9,77.7z M5.1,87.1h66.5v-3.7H5.1V87.1z M63.5,19.3c0.2,0,0.5-0.1,0.5-0.5v-4.4
	c0-1.4-1.1-2.5-2.5-2.5S59,13,59,14.4v4.4c0,0.3,0.2,0.5,0.5,0.5H63.5L63.5,19.3z M10,81.9h56.6v-2.4H10V81.9z M52.6,55.7
	c0.7,0,1.3-0.6,1.3-1.3s-0.6-1.3-1.3-1.3s-1.3,0.6-1.3,1.3S51.9,55.7,52.6,55.7 M61.2,54.4c0-0.7-0.6-1.3-1.3-1.3s-1.3,0.6-1.3,1.3
	s0.6,1.3,1.3,1.3S61.2,55.1,61.2,54.4 M52.3,78.5h8.2c0.5,0,0.9-0.3,0.9-0.9V62c0-2.8-2.2-5-5-5s-5,2.2-5,5v15.6
	C51.4,78.2,51.8,78.5,52.3,78.5 M53.6,11.9c-1.4,0-2.5,1.1-2.5,2.5v4.4c0,0.3,0.2,0.5,0.5,0.5h4.1c0.2,0,0.5-0.1,0.5-0.5v-4.4
	C56.1,13,54.9,11.9,53.6,11.9 M32.3,78.6h11.5c0.6,0,1.3-0.4,1.3-1.3V61.2c0-3.9-3.1-7-7-7s-7,3.1-7,7v16.1
	C31,78.1,31.6,78.6,32.3,78.6 M32.1,53.5c0.7,0,1.3-0.6,1.3-1.3s-0.6-1.3-1.3-1.3s-1.3,0.6-1.3,1.3S31.4,53.5,32.1,53.5 M44.9,52.1
	c0-0.7-0.6-1.3-1.3-1.3s-1.3,0.6-1.3,1.3s0.6,1.3,1.3,1.3S44.9,52.9,44.9,52.1"/>
<path class="st2" d="M33.5,112.1v-2.2h1.1v-1.6h-1.1v-5.4h-2.7l-3.5,5.6v1.4h4.1v2.2 M29.3,108.2L29.3,108.2l1.2-2
	c0.3-0.6,0.6-1.1,0.9-1.7l0,0c0,0.6,0,1.2,0,1.7v2H29.3z"/>
<path class="st3" d="M46.6,102.8v1.4l-3.8,7.9h-2.3l3.8-7.4l0,0h-4.2v-1.8L46.6,102.8L46.6,102.8z"/>
<path class="st4" d="M116.2,81.8l18.6-24.3v-0.1l-18.6-0.1V54l24.3,0.1v2.4l-18.5,24.3v0.1h18.8v3.2h-24.5V81.8z"/>
<path class="st4" d="M158.4,84.1l-0.3-2.7h-0.1c-1.2,1.7-3.6,3.2-6.7,3.2c-4.4,0-6.7-3.1-6.7-6.1c0-5.2,4.7-8,13.2-8V70
	c0-1.8-0.5-5-5-5c-2,0-4.2,0.6-5.7,1.6l-0.9-2.6c1.8-1.1,4.4-1.9,7.2-1.9c6.7,0,8.3,4.5,8.3,8.8v8c0,1.9,0.1,3.7,0.4,5.1H158.4z
	 M157.8,73.2c-4.3-0.1-9.3,0.7-9.3,4.8c0,2.5,1.7,3.7,3.8,3.7c2.9,0,4.7-1.8,5.3-3.6c0.1-0.4,0.2-0.8,0.2-1.2V73.2z"/>
<path class="st4" d="M169,69.2c0-2.5,0-4.7-0.2-6.7h3.5l0.1,4.2h0.2c1-2.9,3.4-4.7,6.1-4.7c0.5,0,0.8,0,1.1,0.1v3.7
	c-0.4-0.1-0.8-0.1-1.4-0.1c-2.8,0-4.8,2.1-5.4,5c-0.1,0.5-0.2,1.2-0.2,1.8v11.5h-4V69.2z"/>
<path class="st4" d="M196.7,84.1l-0.3-2.7h-0.1c-1.2,1.7-3.6,3.2-6.7,3.2c-4.4,0-6.7-3.1-6.7-6.1c0-5.2,4.7-8,13.2-8V70
	c0-1.8-0.5-5-5-5c-2,0-4.2,0.6-5.7,1.6l-0.9-2.6c1.8-1.1,4.4-1.9,7.2-1.9c6.7,0,8.3,4.5,8.3,8.8v8c0,1.9,0.1,3.7,0.4,5.1H196.7z
	 M196.1,73.2c-4.3-0.1-9.3,0.7-9.3,4.8c0,2.5,1.7,3.7,3.8,3.7c2.9,0,4.7-1.8,5.3-3.6c0.1-0.4,0.2-0.8,0.2-1.2V73.2z"/>
<path class="st4" d="M226,62.5c-0.1,1.6-0.2,3.3-0.2,5.9v12.5c0,4.9-1,8-3.1,9.8c-2.1,2-5.2,2.6-7.9,2.6c-2.6,0-5.5-0.6-7.3-1.8l1-3
	c1.4,0.9,3.7,1.7,6.4,1.7c4.1,0,7-2.1,7-7.5v-2.4h-0.1c-1.2,2-3.6,3.6-7,3.6c-5.4,0-9.3-4.5-9.3-10.5c0-7.3,4.8-11.4,9.8-11.4
	c3.8,0,5.9,2,6.8,3.7h0.1l0.2-3.2H226z M221.9,71c0-0.7,0-1.2-0.2-1.8c-0.7-2.3-2.7-4.1-5.6-4.1c-3.8,0-6.5,3.2-6.5,8.1
	c0,4.2,2.2,7.7,6.5,7.7c2.4,0,4.7-1.5,5.5-4c0.2-0.7,0.3-1.4,0.3-2.1V71z"/>
<path class="st4" d="M253.3,73.2c0,8-5.6,11.4-11,11.4c-6,0-10.6-4.3-10.6-11.1c0-7.2,4.8-11.4,10.9-11.4
	C249,62.1,253.3,66.6,253.3,73.2z M235.8,73.4c0,4.7,2.8,8.3,6.7,8.3c3.8,0,6.7-3.5,6.7-8.4c0-3.6-1.9-8.3-6.6-8.3
	C237.9,65,235.8,69.3,235.8,73.4z"/>
<path class="st4" d="M256.1,81.8l10-12.7c1-1.2,1.9-2.2,2.9-3.3v-0.1l-12.8-0.1v-3.2l17.7,0.1l0,2.5L264,77.5
	c-0.9,1.2-1.8,2.3-2.8,3.4V81h12.9v3.1h-17.9V81.8z"/>
<path class="st4" d="M291.3,84.1l-0.3-2.7h-0.1c-1.2,1.7-3.6,3.2-6.7,3.2c-4.4,0-6.7-3.1-6.7-6.1c0-5.2,4.7-8,13.2-8V70
	c0-1.8-0.5-5-5-5c-2,0-4.2,0.6-5.7,1.6l-0.9-2.6c1.8-1.1,4.4-1.9,7.2-1.9c6.7,0,8.3,4.5,8.3,8.8v8c0,1.9,0.1,3.7,0.4,5.1H291.3z
	 M290.7,73.2c-4.3-0.1-9.3,0.7-9.3,4.8c0,2.5,1.7,3.7,3.8,3.7c2.9,0,4.7-1.8,5.3-3.6c0.1-0.4,0.2-0.8,0.2-1.2V73.2z"/>
</svg>
